<svg xmlns="http://www.w3.org/2000/svg" xmlns:xlink="http://www.w3.org/1999/xlink" version="1.1" width="256" height="256" viewBox="0 0 256 256" xml:space="preserve">

<defs>
</defs>
<g transform="translate(1.4065934065934016 1.4065934065934016) scale(2.81 2.81)" >
	<path d="M 30.459 4.618 C 15.869 4.618 4 16.49 4 31.083 c 0 1.104 -0.896 2 -2 2 s -2 -0.896 -2 -2 C 0 14.285 13.664 0.618 30.459 0.618 c 16.794 0 30.458 13.667 30.458 30.465 v 25.751 c 13.661 -1.026 24.465 -12.459 24.465 -26.375 C 85.382 15.869 73.51 4 58.917 4 c -1.104 0 -2 -0.896 -2 -2 s 0.896 -2 2 -2 c 16.798 0 30.465 13.664 30.465 30.458 c 0 16.794 -13.667 30.458 -30.465 30.458 H 33.166 c 1.026 13.661 12.459 24.465 26.375 24.465 C 74.131 85.382 86 73.51 86 58.917 c 0 -1.104 0.896 -2 2 -2 s 2 0.896 2 2 c 0 16.799 -13.664 30.465 -30.458 30.465 c -16.794 0 -30.458 -13.666 -30.458 -30.465 V 33.166 C 15.422 34.193 4.618 45.625 4.618 59.541 C 4.618 74.131 16.49 86 31.083 86 c 1.104 0 2 0.896 2 2 s -0.896 2 -2 2 C 14.284 90 0.618 76.336 0.618 59.541 c 0 -16.794 13.666 -30.458 30.465 -30.458 h 25.751 C 55.807 15.422 44.375 4.618 30.459 4.618 z M 33.083 56.917 h 23.834 V 33.083 H 33.083 V 56.917 z" style="stroke: currentColor; stroke-width: 2; stroke-dasharray: none; stroke-linecap: round; stroke-linejoin: round; fill: currentColor; fill-rule: nonzero; opacity: 1;" transform=" matrix(1 0 0 1 0 0) " stroke-linecap="round" />
</g>
</svg>